<?xml version="1.0" encoding="UTF-8" standalone="no"?>
<!DOCTYPE svg PUBLIC "-//W3C//DTD SVG 1.1//EN" "http://www.w3.org/Graphics/SVG/1.1/DTD/svg11.dtd">
<svg xmlns="http://www.w3.org/2000/svg" version="1.1" viewBox="0.00 0.00 500.00 500.00">
<g stroke-width="2.00" fill="none" stroke-linecap="butt">
<path stroke="#acded9" vector-effect="non-scaling-stroke" d="
  M 272.58 203.46
  L 295.30 245.64
  A 0.51 0.51 0.0 0 1 294.73 246.38
  L 246.46 235.09"
/>
<path stroke="#c4e8e2" vector-effect="non-scaling-stroke" d="
  M 246.46 235.09
  L 246.53 157.65
  Q 246.53 156.93 245.91 157.29
  Q 245.47 157.54 245.33 157.09"
/>
<path stroke="#acded9" vector-effect="non-scaling-stroke" d="
  M 284.19 186.30
  Q 283.98 187.77 284.56 189.43
  Q 284.96 190.62 285.28 191.74
  Q 293.41 220.77 301.44 250.53
  Q 301.88 252.15 302.48 253.70
  Q 302.67 254.18 303.18 254.20
  Q 303.62 254.23 304.25 254.15
  Q 305.27 254.03 305.30 254.94"
/>
<path stroke="#77b4b4" vector-effect="non-scaling-stroke" d="
  M 305.30 254.94
  Q 304.91 254.82 304.78 254.70
  A 0.80 0.78 -64.9 0 0 303.48 255.19
  Q 301.77 266.76 299.42 280.04
  Q 299.17 281.46 300.62 281.48
  L 313.54 281.63"
/>
<path stroke="#93d4c6" vector-effect="non-scaling-stroke" d="
  M 313.54 281.63
  L 280.75 282.18
  Q 280.18 282.19 280.41 281.67
  L 280.72 280.98"
/>
<path stroke="#acded9" vector-effect="non-scaling-stroke" d="
  M 280.72 280.98
  L 298.46 260.11"
/>
<path stroke="#77b4b4" vector-effect="non-scaling-stroke" d="
  M 298.46 260.11
  Q 300.12 258.82 300.65 256.78
  Q 300.78 256.27 300.54 255.80
  L 296.89 248.56
  A 1.76 1.76 0.0 0 0 294.54 247.77
  L 285.28 252.37"
/>
<path stroke="#acded9" vector-effect="non-scaling-stroke" d="
  M 285.28 252.37
  L 276.40 247.34
  Q 275.94 247.08 275.51 247.39
  Q 275.08 247.69 274.71 248.30"
/>
<path stroke="#77b4b4" vector-effect="non-scaling-stroke" d="
  M 274.71 248.30
  Q 274.34 247.99 274.01 247.90
  Q 273.70 247.82 273.30 248.09
  Q 263.95 254.18 255.84 259.47"
/>
<path stroke="#acded9" vector-effect="non-scaling-stroke" d="
  M 255.84 259.47
  L 225.09 230.52"
/>
<path stroke="#93d4c6" vector-effect="non-scaling-stroke" d="
  M 246.46 235.09
  L 225.09 230.52"
/>
<path stroke="#c4e8e2" vector-effect="non-scaling-stroke" d="
  M 225.09 230.52
  Q 224.10 230.40 223.76 230.78
  Q 212.00 244.09 200.15 257.47"
/>
<path stroke="#93d4c6" vector-effect="non-scaling-stroke" d="
  M 200.15 257.47
  Q 198.97 256.17 197.46 255.55"
/>
<path stroke="#8fbebd" vector-effect="non-scaling-stroke" d="
  M 197.46 255.55
  Q 197.12 254.75 196.60 254.55
  Q 196.09 254.35 195.72 254.76
  L 194.28 256.36"
/>
<path stroke="#93d4c6" vector-effect="non-scaling-stroke" d="
  M 194.28 256.36
  Q 193.31 256.35 192.33 256.78"
/>
<path stroke="#c4e8e2" vector-effect="non-scaling-stroke" d="
  M 192.33 256.78
  Q 193.34 254.32 194.57 252.02
  Q 199.17 243.43 203.63 234.75
  Q 204.11 233.83 203.49 233.57"
/>
<path stroke="#a8c8d0" vector-effect="non-scaling-stroke" d="
  M 285.28 252.37
  L 298.46 260.11"
/>
<path stroke="#c4e8e2" vector-effect="non-scaling-stroke" d="
  M 280.72 280.98
  L 247.63 281.46"
/>
<path stroke="#a8c8d0" vector-effect="non-scaling-stroke" d="
  M 247.63 281.46
  L 274.71 248.30"
/>
<path stroke="#acded9" vector-effect="non-scaling-stroke" d="
  M 144.66 277.91
  Q 145.05 279.04 143.20 280.47"
/>
<path stroke="#c4e8e2" vector-effect="non-scaling-stroke" d="
  M 143.20 280.47
  Q 142.81 280.61 142.67 280.95
  A 0.55 0.55 0.0 0 0 143.23 281.71
  C 146.85 281.37 150.22 282.42 153.78 282.38
  Q 161.96 282.28 168.06 283.16
  Q 173.54 283.96 179.11 284.00
  Q 180.30 284.01 181.38 284.22
  C 183.28 284.58 184.86 284.10 186.74 284.39
  Q 188.43 284.65 189.84 284.74
  Q 217.38 286.58 250.51 286.35
  Q 262.07 286.27 270.97 286.37
  Q 273.05 286.39 275.20 286.16
  Q 277.57 285.91 279.37 285.97
  Q 282.67 286.07 286.39 286.00
  Q 286.75 285.99 287.07 285.81
  Q 287.21 285.73 287.36 285.65
  Q 287.68 285.49 288.04 285.51
  Q 294.92 285.77 302.07 285.61
  Q 302.49 285.60 302.16 285.35
  Q 302.05 285.27 301.96 285.15
  Q 301.73 284.81 302.14 284.83
  Q 307.88 285.08 313.77 284.26
  C 317.07 283.80 320.43 283.75 323.75 283.59
  Q 324.27 283.56 324.69 283.26
  Q 325.71 282.54 326.97 282.59
  Q 331.05 282.76 334.80 282.31
  Q 335.31 282.25 335.23 281.74
  Q 335.10 280.99 334.59 281.32"
/>
<path stroke="#acded9" vector-effect="non-scaling-stroke" d="
  M 334.59 281.32
  L 306.94 256.47"
/>
<path stroke="#a8c8d0" vector-effect="non-scaling-stroke" d="
  M 306.94 256.47
  Q 306.24 256.20 305.30 254.94"
/>
<path stroke="#77b4b4" vector-effect="non-scaling-stroke" d="
  M 306.94 256.47
  Q 309.67 262.46 313.45 267.30
  Q 318.61 273.91 323.29 281.48"
/>
<path stroke="#8fbebd" vector-effect="non-scaling-stroke" d="
  M 323.29 281.48
  L 313.54 281.63"
/>
<path stroke="#a8c8d0" vector-effect="non-scaling-stroke" d="
  M 255.84 259.47
  L 220.72 281.62"
/>
<path stroke="#c4e8e2" vector-effect="non-scaling-stroke" d="
  M 220.72 281.62
  Q 221.03 281.24 219.82 280.51"
/>
<path stroke="#acded9" vector-effect="non-scaling-stroke" d="
  M 219.82 280.51
  L 200.15 257.47"
/>
<path stroke="#8fbebd" vector-effect="non-scaling-stroke" d="
  M 247.63 281.46
  Q 247.32 281.93 245.00 281.89
  Q 233.26 281.67 220.72 281.62"
/>
<path stroke="#93d4c6" vector-effect="non-scaling-stroke" d="
  M 219.82 280.51
  Q 220.21 281.71 219.50 281.70
  Q 200.52 281.62 181.54 281.61"
/>
<path stroke="#acded9" vector-effect="non-scaling-stroke" d="
  M 192.33 256.78
  Q 191.16 258.76 189.42 260.02
  A 0.37 0.37 0.0 0 1 188.84 259.72
  L 188.52 221.36"
/>
<path stroke="#77b4b4" vector-effect="non-scaling-stroke" d="
  M 197.46 255.55
  L 197.21 256.09
  Q 197.00 256.54 197.04 257.04
  L 198.52 279.26
  A 2.18 2.18 0.0 0 1 196.35 281.59
  L 181.54 281.61"
/>
<path stroke="#8fbebd" vector-effect="non-scaling-stroke" d="
  M 181.54 281.61
  L 177.09 281.48"
/>
<path stroke="#77b4b4" vector-effect="non-scaling-stroke" d="
  M 194.28 256.36
  L 177.09 281.48"
/>
<path stroke="#93d4c6" vector-effect="non-scaling-stroke" d="
  M 177.09 281.48
  Q 160.79 281.46 143.50 281.42
  Q 142.95 281.42 143.20 280.47"
/>
<path stroke="#93d4c6" vector-effect="non-scaling-stroke" d="
  M 334.59 281.32
  L 323.29 281.48"
/>
</g>
<path fill="#ddf2f5" d="
  M 272.58 203.46
  L 295.30 245.64
  A 0.51 0.51 0.0 0 1 294.73 246.38
  L 246.46 235.09
  L 246.53 157.65
  Q 246.53 156.93 245.91 157.29
  Q 245.47 157.54 245.33 157.09
  Q 245.38 156.11 246.30 155.80
  Q 246.75 155.65 246.97 156.07
  L 271.92 202.92
  Q 272.06 203.19 272.35 203.34
  Q 272.46 203.40 272.58 203.46
  Z"
/>
<path fill="#abdecf" d="
  M 245.33 157.09
  Q 245.47 157.54 245.91 157.29
  Q 246.53 156.93 246.53 157.65
  L 246.46 235.09
  L 225.09 230.52
  Q 224.10 230.40 223.76 230.78
  Q 212.00 244.09 200.15 257.47
  Q 198.97 256.17 197.46 255.55
  Q 197.12 254.75 196.60 254.55
  Q 196.09 254.35 195.72 254.76
  L 194.28 256.36
  Q 193.31 256.35 192.33 256.78
  Q 193.34 254.32 194.57 252.02
  Q 199.17 243.43 203.63 234.75
  Q 204.11 233.83 203.49 233.57
  Q 204.73 232.99 205.35 231.82
  Q 225.47 194.51 245.33 157.09
  Z"
/>
<path fill="#7bcabc" d="
  M 284.19 186.30
  Q 283.98 187.77 284.56 189.43
  Q 284.96 190.62 285.28 191.74
  Q 293.41 220.77 301.44 250.53
  Q 301.88 252.15 302.48 253.70
  Q 302.67 254.18 303.18 254.20
  Q 303.62 254.23 304.25 254.15
  Q 305.27 254.03 305.30 254.94
  Q 304.91 254.82 304.78 254.70
  A 0.80 0.78 -64.9 0 0 303.48 255.19
  Q 301.77 266.76 299.42 280.04
  Q 299.17 281.46 300.62 281.48
  L 313.54 281.63
  L 280.75 282.18
  Q 280.18 282.19 280.41 281.67
  L 280.72 280.98
  L 298.46 260.11
  Q 300.12 258.82 300.65 256.78
  Q 300.78 256.27 300.54 255.80
  L 296.89 248.56
  A 1.76 1.76 0.0 0 0 294.54 247.77
  L 285.28 252.37
  L 276.40 247.34
  Q 275.94 247.08 275.51 247.39
  Q 275.08 247.69 274.71 248.30
  Q 274.34 247.99 274.01 247.90
  Q 273.70 247.82 273.30 248.09
  Q 263.95 254.18 255.84 259.47
  L 225.09 230.52
  L 246.46 235.09
  L 294.73 246.38
  A 0.51 0.51 0.0 0 0 295.30 245.64
  L 272.58 203.46
  L 282.63 185.02
  A 0.53 0.52 -43.6 0 1 283.56 185.04
  L 284.19 186.30
  Z"
/>
<path fill="#ddf2f5" d="
  M 284.19 186.30
  C 304.78 215.37 324.81 244.82 345.16 274.04
  Q 347.18 276.94 350.16 276.91
  Q 356.29 276.84 362.50 277.31
  C 368.76 277.79 374.76 277.79 380.84 278.40
  Q 386.32 278.94 391.53 279.58
  C 392.86 279.74 393.97 280.35 395.24 280.72
  Q 396.19 281.00 395.32 281.48
  C 394.55 281.90 394.45 282.41 393.43 282.57
  Q 387.86 283.48 382.25 283.97
  Q 353.98 286.43 335.25 286.89
  Q 319.59 287.28 304.76 287.68
  C 286.18 288.20 267.79 287.99 249.50 288.25
  C 246.72 288.30 243.93 288.02 241.17 288.04
  Q 209.41 288.21 171.28 287.65
  Q 159.11 287.47 148.92 286.45
  C 136.77 285.24 124.24 284.49 112.58 283.59
  Q 108.04 283.24 103.30 282.31
  A 1.07 1.06 34.6 0 1 102.94 280.36
  Q 104.20 279.57 105.95 279.46
  C 111.73 279.07 117.51 278.37 123.35 278.24
  Q 130.90 278.07 138.44 277.55
  Q 139.70 277.46 141.52 277.78
  Q 143.23 278.07 144.66 277.91
  Q 145.05 279.04 143.20 280.47
  Q 142.81 280.61 142.67 280.95
  A 0.55 0.55 0.0 0 0 143.23 281.71
  C 146.85 281.37 150.22 282.42 153.78 282.38
  Q 161.96 282.28 168.06 283.16
  Q 173.54 283.96 179.11 284.00
  Q 180.30 284.01 181.38 284.22
  C 183.28 284.58 184.86 284.10 186.74 284.39
  Q 188.43 284.65 189.84 284.74
  Q 217.38 286.58 250.51 286.35
  Q 262.07 286.27 270.97 286.37
  Q 273.05 286.39 275.20 286.16
  Q 277.57 285.91 279.37 285.97
  Q 282.67 286.07 286.39 286.00
  Q 286.75 285.99 287.07 285.81
  Q 287.21 285.73 287.36 285.65
  Q 287.68 285.49 288.04 285.51
  Q 294.92 285.77 302.07 285.61
  Q 302.49 285.60 302.16 285.35
  Q 302.05 285.27 301.96 285.15
  Q 301.73 284.81 302.14 284.83
  Q 307.88 285.08 313.77 284.26
  C 317.07 283.80 320.43 283.75 323.75 283.59
  Q 324.27 283.56 324.69 283.26
  Q 325.71 282.54 326.97 282.59
  Q 331.05 282.76 334.80 282.31
  Q 335.31 282.25 335.23 281.74
  Q 335.10 280.99 334.59 281.32
  L 306.94 256.47
  Q 306.24 256.20 305.30 254.94
  Q 305.27 254.03 304.25 254.15
  Q 303.62 254.23 303.18 254.20
  Q 302.67 254.18 302.48 253.70
  Q 301.88 252.15 301.44 250.53
  Q 293.41 220.77 285.28 191.74
  Q 284.96 190.62 284.56 189.43
  Q 283.98 187.77 284.19 186.30
  Z"
/>
<path fill="#ddf2f5" d="
  M 203.49 233.57
  Q 204.11 233.83 203.63 234.75
  Q 199.17 243.43 194.57 252.02
  Q 193.34 254.32 192.33 256.78
  Q 191.16 258.76 189.42 260.02
  A 0.37 0.37 0.0 0 1 188.84 259.72
  L 188.52 221.36
  Q 189.61 221.48 191.30 222.69
  Q 197.81 227.36 203.03 233.43
  Q 203.21 233.63 203.49 233.57
  Z"
/>
<path fill="#7bcabc" d="
  M 188.52 221.36
  L 188.84 259.72
  A 0.37 0.37 0.0 0 0 189.42 260.02
  Q 191.16 258.76 192.33 256.78
  Q 193.31 256.35 194.28 256.36
  L 177.09 281.48
  Q 160.79 281.46 143.50 281.42
  Q 142.95 281.42 143.20 280.47
  Q 145.05 279.04 144.66 277.91
  Q 147.08 275.76 147.70 274.95
  Q 167.72 248.66 188.52 221.36
  Z"
/>
<path fill="#ddf2f5" d="
  M 225.09 230.52
  L 255.84 259.47
  L 220.72 281.62
  Q 221.03 281.24 219.82 280.51
  L 200.15 257.47
  Q 212.00 244.09 223.76 230.78
  Q 224.10 230.40 225.09 230.52
  Z"
/>
<path fill="#ddf2f5" d="
  M 285.28 252.37
  L 298.46 260.11
  L 280.72 280.98
  L 247.63 281.46
  L 274.71 248.30
  Q 275.08 247.69 275.51 247.39
  Q 275.94 247.08 276.40 247.34
  L 285.28 252.37
  Z"
/>
<path fill="#739dab" d="
  M 298.46 260.11
  L 285.28 252.37
  L 294.54 247.77
  A 1.76 1.76 0.0 0 1 296.89 248.56
  L 300.54 255.80
  Q 300.78 256.27 300.65 256.78
  Q 300.12 258.82 298.46 260.11
  Z"
/>
<path fill="#739dab" d="
  M 274.71 248.30
  L 247.63 281.46
  Q 247.32 281.93 245.00 281.89
  Q 233.26 281.67 220.72 281.62
  L 255.84 259.47
  Q 263.95 254.18 273.30 248.09
  Q 273.70 247.82 274.01 247.90
  Q 274.34 247.99 274.71 248.30
  Z"
/>
<path fill="#739dab" d="
  M 197.46 255.55
  L 197.21 256.09
  Q 197.00 256.54 197.04 257.04
  L 198.52 279.26
  A 2.18 2.18 0.0 0 1 196.35 281.59
  L 181.54 281.61
  L 177.09 281.48
  L 194.28 256.36
  L 195.72 254.76
  Q 196.09 254.35 196.60 254.55
  Q 197.12 254.75 197.46 255.55
  Z"
/>
<path fill="#739dab" d="
  M 305.30 254.94
  Q 306.24 256.20 306.94 256.47
  Q 309.67 262.46 313.45 267.30
  Q 318.61 273.91 323.29 281.48
  L 313.54 281.63
  L 300.62 281.48
  Q 299.17 281.46 299.42 280.04
  Q 301.77 266.76 303.48 255.19
  A 0.80 0.78 -64.9 0 1 304.78 254.70
  Q 304.91 254.82 305.30 254.94
  Z"
/>
<path fill="#7bcabc" d="
  M 197.46 255.55
  Q 198.97 256.17 200.15 257.47
  L 219.82 280.51
  Q 220.21 281.71 219.50 281.70
  Q 200.52 281.62 181.54 281.61
  L 196.35 281.59
  A 2.18 2.18 0.0 0 0 198.52 279.26
  L 197.04 257.04
  Q 197.00 256.54 197.21 256.09
  L 197.46 255.55
  Z"
/>
<path fill="#7bcabc" d="
  M 306.94 256.47
  L 334.59 281.32
  L 323.29 281.48
  Q 318.61 273.91 313.45 267.30
  Q 309.67 262.46 306.94 256.47
  Z"
/>
<path fill="#abdecf" d="
  M 143.20 280.47
  Q 142.95 281.42 143.50 281.42
  Q 160.79 281.46 177.09 281.48
  L 181.54 281.61
  Q 200.52 281.62 219.50 281.70
  Q 220.21 281.71 219.82 280.51
  Q 221.03 281.24 220.72 281.62
  Q 233.26 281.67 245.00 281.89
  Q 247.32 281.93 247.63 281.46
  L 280.72 280.98
  L 280.41 281.67
  Q 280.18 282.19 280.75 282.18
  L 313.54 281.63
  L 323.29 281.48
  L 334.59 281.32
  Q 335.10 280.99 335.23 281.74
  Q 335.31 282.25 334.80 282.31
  Q 331.05 282.76 326.97 282.59
  Q 325.71 282.54 324.69 283.26
  Q 324.27 283.56 323.75 283.59
  C 320.43 283.75 317.07 283.80 313.77 284.26
  Q 307.88 285.08 302.14 284.83
  Q 301.73 284.81 301.96 285.15
  Q 302.05 285.27 302.16 285.35
  Q 302.49 285.60 302.07 285.61
  Q 294.92 285.77 288.04 285.51
  Q 287.68 285.49 287.36 285.65
  Q 287.21 285.73 287.07 285.81
  Q 286.75 285.99 286.39 286.00
  Q 282.67 286.07 279.37 285.97
  Q 277.57 285.91 275.20 286.16
  Q 273.05 286.39 270.97 286.37
  Q 262.07 286.27 250.51 286.35
  Q 217.38 286.58 189.84 284.74
  Q 188.43 284.65 186.74 284.39
  C 184.86 284.10 183.28 284.58 181.38 284.22
  Q 180.30 284.01 179.11 284.00
  Q 173.54 283.96 168.06 283.16
  Q 161.96 282.28 153.78 282.38
  C 150.22 282.42 146.85 281.37 143.23 281.71
  A 0.55 0.55 0.0 0 1 142.67 280.95
  Q 142.81 280.61 143.20 280.47
  Z"
/>
</svg>
